<?xml version="1.0" encoding="UTF-8" standalone="no"?>
<!DOCTYPE svg PUBLIC "-//W3C//DTD SVG 1.1//EN"
 "http://www.w3.org/Graphics/SVG/1.1/DTD/svg11.dtd">
<!-- Generated by graphviz version 2.38.0 (20140413.2041)
 -->
<!-- Title: %3 Pages: 1 -->
<svg width="879pt" height="231pt"
 viewBox="0.00 0.00 879.24 231.00" xmlns="http://www.w3.org/2000/svg" xmlns:xlink="http://www.w3.org/1999/xlink">
<g id="graph0" class="graph" transform="scale(1 1) rotate(0) translate(4 227)">
<title>%3</title>
<polygon fill="#3f3f3f" stroke="none" points="-4,4 -4,-227 875.242,-227 875.242,4 -4,4"/>
<text text-anchor="middle" x="435.621" y="-9.2" font-family="Times,serif" font-size="16.00" fill="white">Network Map</text>
<!-- R2 -->
<g id="node1" class="node"><title>R2</title>
<polygon fill="#006699" stroke="#006699" points="217.742,-99 140.742,-99 140.742,-26 217.742,-26 217.742,-99"/>
<text text-anchor="middle" x="179.242" y="-58.8" font-family="Helvetica,sans-Serif" font-size="14.00" fill="white">R2</text>
</g>
<!-- R5 -->
<g id="node2" class="node"><title>R5</title>
<polygon fill="#006699" stroke="#006699" points="340.742,-223 263.742,-223 263.742,-150 340.742,-150 340.742,-223"/>
<text text-anchor="middle" x="302.242" y="-182.8" font-family="Helvetica,sans-Serif" font-size="14.00" fill="white">R5</text>
</g>
<!-- R2&#45;&#45;R5 -->
<g id="edge3" class="edge"><title>R2&#45;&#45;R5</title>
<path fill="none" stroke="green" stroke-dasharray="5,2" d="M172.525,-99.1787C172.208,-110.477 173.927,-122.487 180.242,-132 198.726,-159.843 235.213,-173.299 263.491,-179.739"/>
<text text-anchor="middle" x="230.242" y="-120.8" font-family="Courier,monospace" font-size="14.00" fill="white"> &#160;&#160;&#160;&#160;&#160;&#160;&#160;&#160;&#160;&#160;&#160;</text>
<text text-anchor="middle" x="234.491" y="-168.539" font-family="Courier,monospace" font-size="14.00" fill="white">Eth 0/0</text>
<text text-anchor="middle" x="143.525" y="-102.979" font-family="Courier,monospace" font-size="14.00" fill="white">Eth 0/1</text>
</g>
<!-- SW1 -->
<g id="node4" class="node"><title>SW1</title>
<polygon fill="#006699" stroke="#006699" points="655.242,-223 563.242,-223 563.242,-150 655.242,-150 655.242,-223"/>
<text text-anchor="middle" x="609.242" y="-182.8" font-family="Helvetica,sans-Serif" font-size="14.00" fill="white">SW1</text>
</g>
<!-- R2&#45;&#45;SW1 -->
<g id="edge2" class="edge"><title>R2&#45;&#45;SW1</title>
<path fill="none" stroke="green" stroke-dasharray="5,2" d="M218.064,-81.9874C237.246,-91.6379 260.461,-104.105 280.242,-117 289.255,-122.875 289.417,-127.617 299.242,-132 345.691,-152.72 488.64,-171.609 563.088,-180.364"/>
<text text-anchor="middle" x="349.242" y="-120.8" font-family="Courier,monospace" font-size="14.00" fill="white"> &#160;&#160;&#160;&#160;&#160;&#160;&#160;&#160;&#160;&#160;&#160;</text>
<text text-anchor="middle" x="534.088" y="-169.164" font-family="Courier,monospace" font-size="14.00" fill="white">Eth 0/2</text>
<text text-anchor="middle" x="247.064" y="-70.7874" font-family="Courier,monospace" font-size="14.00" fill="white">Eth 0/0</text>
</g>
<!-- R6 -->
<g id="node6" class="node"><title>R6</title>
<polygon fill="#006699" stroke="#006699" points="94.7423,-223 17.7423,-223 17.7423,-150 94.7423,-150 94.7423,-223"/>
<text text-anchor="middle" x="56.2423" y="-182.8" font-family="Helvetica,sans-Serif" font-size="14.00" fill="white">R6</text>
</g>
<!-- R2&#45;&#45;R6 -->
<g id="edge4" class="edge"><title>R2&#45;&#45;R6</title>
<path fill="none" stroke="green" stroke-dasharray="5,2" d="M140.534,-73.4058C117.071,-81.3842 88.4401,-94.9875 71.2423,-117 63.9721,-126.306 60.0578,-138.394 58,-149.82"/>
<text text-anchor="middle" x="121.242" y="-120.8" font-family="Courier,monospace" font-size="14.00" fill="white"> &#160;&#160;&#160;&#160;&#160;&#160;&#160;&#160;&#160;&#160;&#160;</text>
<text text-anchor="middle" x="29" y="-138.62" font-family="Courier,monospace" font-size="14.00" fill="white">Eth 0/1</text>
<text text-anchor="middle" x="111.534" y="-62.2058" font-family="Courier,monospace" font-size="14.00" fill="white">Eth 0/2</text>
</g>
<!-- R4 -->
<g id="node3" class="node"><title>R4</title>
<polygon fill="#006699" stroke="#006699" points="524.742,-99 447.742,-99 447.742,-26 524.742,-26 524.742,-99"/>
<text text-anchor="middle" x="486.242" y="-58.8" font-family="Helvetica,sans-Serif" font-size="14.00" fill="white">R4</text>
</g>
<!-- R4&#45;&#45;R5 -->
<g id="edge7" class="edge"><title>R4&#45;&#45;R5</title>
<path fill="none" stroke="green" stroke-dasharray="5,2" d="M447.405,-98.3057C433.883,-109.668 418.316,-121.939 403.242,-132 383.602,-145.109 360.397,-157.591 341.186,-167.196"/>
<text text-anchor="middle" x="472.242" y="-120.8" font-family="Courier,monospace" font-size="14.00" fill="white"> &#160;&#160;&#160;&#160;&#160;&#160;&#160;&#160;&#160;&#160;&#160;</text>
<text text-anchor="middle" x="370.186" y="-155.996" font-family="Courier,monospace" font-size="14.00" fill="white">Eth 0/1</text>
<text text-anchor="middle" x="418.405" y="-87.1057" font-family="Courier,monospace" font-size="14.00" fill="white">Eth 0/1</text>
</g>
<!-- R4&#45;&#45;SW1 -->
<g id="edge6" class="edge"><title>R4&#45;&#45;SW1</title>
<path fill="none" stroke="green" stroke-dasharray="5,2" d="M515.196,-99.3401C524.444,-110.168 534.957,-121.865 545.242,-132 551.328,-137.997 558.009,-144.072 564.686,-149.869"/>
<text text-anchor="middle" x="595.242" y="-120.8" font-family="Courier,monospace" font-size="14.00" fill="white"> &#160;&#160;&#160;&#160;&#160;&#160;&#160;&#160;&#160;&#160;&#160;</text>
<text text-anchor="middle" x="535.686" y="-138.669" font-family="Courier,monospace" font-size="14.00" fill="white">Eth 0/4</text>
<text text-anchor="middle" x="486.196" y="-103.14" font-family="Courier,monospace" font-size="14.00" fill="white">Eth 0/0</text>
</g>
<!-- R1 -->
<g id="node5" class="node"><title>R1</title>
<polygon fill="#006699" stroke="#006699" points="709.742,-99 632.742,-99 632.742,-26 709.742,-26 709.742,-99"/>
<text text-anchor="middle" x="671.242" y="-58.8" font-family="Helvetica,sans-Serif" font-size="14.00" fill="white">R1</text>
</g>
<!-- R1&#45;&#45;SW1 -->
<g id="edge1" class="edge"><title>R1&#45;&#45;SW1</title>
<path fill="none" stroke="green" stroke-dasharray="5,2" d="M662.212,-99.2453C658.835,-110.069 654.512,-121.788 649.242,-132 646.158,-137.977 642.418,-143.993 638.477,-149.721"/>
<text text-anchor="middle" x="705.242" y="-120.8" font-family="Courier,monospace" font-size="14.00" fill="white"> &#160;&#160;&#160;&#160;&#160;&#160;&#160;&#160;&#160;&#160;&#160;</text>
<text text-anchor="middle" x="609.477" y="-138.521" font-family="Courier,monospace" font-size="14.00" fill="white">Eth 0/1</text>
<text text-anchor="middle" x="633.212" y="-103.045" font-family="Courier,monospace" font-size="14.00" fill="white">Eth 0/0</text>
</g>
<!-- R3 -->
<g id="node7" class="node"><title>R3</title>
<polygon fill="#006699" stroke="#006699" points="832.742,-99 755.742,-99 755.742,-26 832.742,-26 832.742,-99"/>
<text text-anchor="middle" x="794.242" y="-58.8" font-family="Helvetica,sans-Serif" font-size="14.00" fill="white">R3</text>
</g>
<!-- R3&#45;&#45;SW1 -->
<g id="edge5" class="edge"><title>R3&#45;&#45;SW1</title>
<path fill="none" stroke="green" stroke-dasharray="5,2" d="M782.107,-99.348C776.663,-111.056 769.178,-123.277 759.242,-132 730.051,-157.63 687.72,-171.242 655.465,-178.307"/>
<text text-anchor="middle" x="821.242" y="-120.8" font-family="Courier,monospace" font-size="14.00" fill="white"> &#160;&#160;&#160;&#160;&#160;&#160;&#160;&#160;&#160;&#160;&#160;</text>
<text text-anchor="middle" x="684.465" y="-167.107" font-family="Courier,monospace" font-size="14.00" fill="white">Eth 0/3</text>
<text text-anchor="middle" x="753.107" y="-103.148" font-family="Courier,monospace" font-size="14.00" fill="white">Eth 0/0</text>
</g>
</g>
</svg>
