<?xml version="1.0" encoding="UTF-8" standalone="no"?>
<!DOCTYPE svg PUBLIC "-//W3C//DTD SVG 1.1//EN"
 "http://www.w3.org/Graphics/SVG/1.1/DTD/svg11.dtd">
<!-- Generated by graphviz version 2.38.0 (20140413.2041)
 -->
<!-- Title: %3 Pages: 1 -->
<svg width="773pt" height="355pt"
 viewBox="0.00 0.00 772.94 355.00" xmlns="http://www.w3.org/2000/svg" xmlns:xlink="http://www.w3.org/1999/xlink">
<g id="graph0" class="graph" transform="scale(1 1) rotate(0) translate(4 351)">
<title>%3</title>
<polygon fill="#333333" stroke="none" points="-4,4 -4,-351 768.941,-351 768.941,4 -4,4"/>
<text text-anchor="middle" x="382.471" y="-9.2" font-family="Times,serif" font-size="16.00" fill="white">Network Map</text>
<!-- R2 -->
<g id="node1" class="node"><title>R2</title>
<polygon fill="#006699" stroke="#006699" points="163.441,-99 86.4411,-99 86.4411,-26 163.441,-26 163.441,-99"/>
<text text-anchor="middle" x="124.941" y="-58.8" font-family="Helvetica,sans-Serif" font-size="14.00" fill="white">R2</text>
</g>
<!-- SW1 -->
<g id="node2" class="node"><title>SW1</title>
<polygon fill="#006699" stroke="#006699" points="354.941,-223 262.941,-223 262.941,-150 354.941,-150 354.941,-223"/>
<text text-anchor="middle" x="308.941" y="-182.8" font-family="Helvetica,sans-Serif" font-size="14.00" fill="white">SW1</text>
</g>
<!-- R2&#45;&#45;SW1 -->
<g id="edge5" class="edge"><title>R2&#45;&#45;SW1</title>
<path fill="none" stroke="green" stroke-dasharray="5,2" d="M162.959,-99.2067C175.789,-110.382 190.523,-122.312 204.941,-132 223.059,-144.173 244.299,-155.557 262.845,-164.667"/>
<text text-anchor="middle" x="254.941" y="-120.8" font-family="Courier,monospace" font-size="14.00" fill="white"> &#160;&#160;&#160;&#160;&#160;&#160;&#160;&#160;&#160;&#160;&#160;</text>
<text text-anchor="middle" x="237.845" y="-153.467" font-family="Courier,monospace" font-size="14.00" fill="white">Eth0/2</text>
<text text-anchor="middle" x="137.959" y="-103.007" font-family="Courier,monospace" font-size="14.00" fill="white">Eth0/0</text>
</g>
<!-- SW2 -->
<g id="node7" class="node"><title>SW2</title>
<polygon fill="#006699" stroke="#006699" points="108.941,-223 16.9411,-223 16.9411,-150 108.941,-150 108.941,-223"/>
<text text-anchor="middle" x="62.9411" y="-182.8" font-family="Helvetica,sans-Serif" font-size="14.00" fill="white">SW2</text>
</g>
<!-- R2&#45;&#45;SW2 -->
<g id="edge6" class="edge"><title>R2&#45;&#45;SW2</title>
<path fill="none" stroke="green" stroke-dasharray="5,2" d="M86.3707,-88.6726C77.3735,-96.5805 68.9619,-106.13 63.9411,-117 59.303,-127.042 57.9027,-138.828 58,-149.765"/>
<text text-anchor="middle" x="113.941" y="-120.8" font-family="Courier,monospace" font-size="14.00" fill="white"> &#160;&#160;&#160;&#160;&#160;&#160;&#160;&#160;&#160;&#160;&#160;</text>
<text text-anchor="middle" x="29" y="-138.565" font-family="Courier,monospace" font-size="14.00" fill="white">Eth0/11</text>
<text text-anchor="middle" x="61.3707" y="-77.4726" font-family="Courier,monospace" font-size="14.00" fill="white">Eth0/1</text>
</g>
<!-- R6 -->
<g id="node3" class="node"><title>R6</title>
<polygon fill="#006699" stroke="#006699" points="347.441,-347 270.441,-347 270.441,-274 347.441,-274 347.441,-347"/>
<text text-anchor="middle" x="308.941" y="-306.8" font-family="Helvetica,sans-Serif" font-size="14.00" fill="white">R6</text>
</g>
<!-- SW1&#45;&#45;R6 -->
<g id="edge7" class="edge"><title>SW1&#45;&#45;R6</title>
<path fill="none" stroke="green" stroke-dasharray="5,2" d="M308.941,-223.115C308.941,-239.01 308.941,-257.704 308.941,-273.629"/>
<text text-anchor="middle" x="358.941" y="-244.8" font-family="Courier,monospace" font-size="14.00" fill="white"> &#160;&#160;&#160;&#160;&#160;&#160;&#160;&#160;&#160;&#160;&#160;</text>
<text text-anchor="middle" x="283.941" y="-262.429" font-family="Courier,monospace" font-size="14.00" fill="white">Eth0/1</text>
<text text-anchor="middle" x="283.941" y="-226.915" font-family="Courier,monospace" font-size="14.00" fill="white">Eth0/5</text>
</g>
<!-- R3 -->
<g id="node4" class="node"><title>R3</title>
<polygon fill="#006699" stroke="#006699" points="593.441,-99 516.441,-99 516.441,-26 593.441,-26 593.441,-99"/>
<text text-anchor="middle" x="554.941" y="-58.8" font-family="Helvetica,sans-Serif" font-size="14.00" fill="white">R3</text>
</g>
<!-- R3&#45;&#45;SW1 -->
<g id="edge1" class="edge"><title>R3&#45;&#45;SW1</title>
<path fill="none" stroke="green" stroke-dasharray="5,2" d="M516.233,-82.6967C472.529,-104.371 401.468,-139.613 354.961,-162.677"/>
<text text-anchor="middle" x="495.941" y="-120.8" font-family="Courier,monospace" font-size="14.00" fill="white"> &#160;&#160;&#160;&#160;&#160;&#160;&#160;&#160;&#160;&#160;&#160;</text>
<text text-anchor="middle" x="379.961" y="-151.477" font-family="Courier,monospace" font-size="14.00" fill="white">Eth0/3</text>
<text text-anchor="middle" x="491.233" y="-71.4967" font-family="Courier,monospace" font-size="14.00" fill="white">Eth0/0</text>
</g>
<!-- R4 -->
<g id="node5" class="node"><title>R4</title>
<polygon fill="#006699" stroke="#006699" points="593.441,-223 516.441,-223 516.441,-150 593.441,-150 593.441,-223"/>
<text text-anchor="middle" x="554.941" y="-182.8" font-family="Helvetica,sans-Serif" font-size="14.00" fill="white">R4</text>
</g>
<!-- R3&#45;&#45;R4 -->
<g id="edge2" class="edge"><title>R3&#45;&#45;R4</title>
<path fill="none" stroke="green" stroke-dasharray="5,2" d="M554.941,-99.1154C554.941,-115.01 554.941,-133.704 554.941,-149.629"/>
<text text-anchor="middle" x="604.941" y="-120.8" font-family="Courier,monospace" font-size="14.00" fill="white"> &#160;&#160;&#160;&#160;&#160;&#160;&#160;&#160;&#160;&#160;&#160;</text>
<text text-anchor="middle" x="529.941" y="-138.429" font-family="Courier,monospace" font-size="14.00" fill="white">Eth0/0</text>
<text text-anchor="middle" x="529.941" y="-102.915" font-family="Courier,monospace" font-size="14.00" fill="white">Eth0/1</text>
</g>
<!-- R5 -->
<g id="node6" class="node"><title>R5</title>
<polygon fill="#006699" stroke="#006699" points="716.441,-223 639.441,-223 639.441,-150 716.441,-150 716.441,-223"/>
<text text-anchor="middle" x="677.941" y="-182.8" font-family="Helvetica,sans-Serif" font-size="14.00" fill="white">R5</text>
</g>
<!-- R3&#45;&#45;R5 -->
<g id="edge3" class="edge"><title>R3&#45;&#45;R5</title>
<path fill="none" stroke="green" stroke-dasharray="5,2" d="M593.707,-75.8466C614.777,-84.3628 639.76,-97.6806 655.941,-117 663.721,-126.288 668.763,-138.373 672.026,-149.8"/>
<text text-anchor="middle" x="714.941" y="-120.8" font-family="Courier,monospace" font-size="14.00" fill="white"> &#160;&#160;&#160;&#160;&#160;&#160;&#160;&#160;&#160;&#160;&#160;</text>
<text text-anchor="middle" x="647.026" y="-138.6" font-family="Courier,monospace" font-size="14.00" fill="white">Eth0/0</text>
<text text-anchor="middle" x="618.707" y="-64.6466" font-family="Courier,monospace" font-size="14.00" fill="white">Eth0/2</text>
</g>
<!-- R1 -->
<g id="node8" class="node"><title>R1</title>
<polygon fill="#006699" stroke="#006699" points="347.441,-99 270.441,-99 270.441,-26 347.441,-26 347.441,-99"/>
<text text-anchor="middle" x="308.941" y="-58.8" font-family="Helvetica,sans-Serif" font-size="14.00" fill="white">R1</text>
</g>
<!-- R1&#45;&#45;SW1 -->
<g id="edge4" class="edge"><title>R1&#45;&#45;SW1</title>
<path fill="none" stroke="green" stroke-dasharray="5,2" d="M308.941,-99.1154C308.941,-115.01 308.941,-133.704 308.941,-149.629"/>
<text text-anchor="middle" x="358.941" y="-120.8" font-family="Courier,monospace" font-size="14.00" fill="white"> &#160;&#160;&#160;&#160;&#160;&#160;&#160;&#160;&#160;&#160;&#160;</text>
<text text-anchor="middle" x="283.941" y="-138.429" font-family="Courier,monospace" font-size="14.00" fill="white">Eth0/1</text>
<text text-anchor="middle" x="283.941" y="-102.915" font-family="Courier,monospace" font-size="14.00" fill="white">Eth0/0</text>
</g>
</g>
</svg>
